<svg xmlns="http://www.w3.org/2000/svg" xml:space="preserve" width="2031px" height="799px"
     style="fill-rule:evenodd; clip-rule:evenodd">
   <path class="fil0" fill="#ffffff"
         d="M1108.67 242.44c11.5,33.63 -16.15,104.04 -50.03,104.62 11.26,-56.08 21.03,-67.7 50.03,-104.62zm514.55 102.22c15.46,-4.43 42.34,-59.72 61.81,-100.8 -0.82,17.3 -0.71,36.09 0.25,62.09 1.02,27.85 22.08,20.81 43.31,18.77l-1.81 -41.74c27.81,-19.74 63.83,-39.47 96.47,-59.17 7.32,-4.42 13,-6.75 17.93,-7.45 -40.97,60.18 -82.51,307.46 -5.05,296.15 107.07,-15.63 206.96,-314.68 193.68,-358.76 -3.66,-12.15 -17.03,-12.06 -46.28,-14.98 5.92,12.75 3.05,14.2 2.26,29.55 -3.69,71.18 -95.98,303.47 -150.25,318.85 -26.52,4.75 4.45,-129.52 16.85,-163.5 14.5,-39.71 33.94,-79.97 33.72,-84.04 -0.05,-0.81 -5.18,-9.57 -5.96,-11 -5.03,-9.24 -10.08,-18.46 -14.89,-27.82 -7.17,-13.93 -24.7,-5.51 -41.19,1.42 -8.33,3.5 -16.61,7.04 -24.86,10.59 36,-34.75 74.35,-71.75 98.95,-115.07 13.51,-23.78 26.3,-52.55 16.46,-75.3 -9.2,-21.25 -25.57,-27.94 -46.03,-17.8 -23.43,11.61 -42.02,34.34 -54.81,56.79 -36.06,63.33 -58.43,116.96 -84.96,182.14l-2.7 1.18c0.93,-22.7 5.15,-36.66 13.12,-68.13 1.99,-7.46 3.98,-14.93 5.98,-22.39 7.73,-28.95 -21.46,-46.54 -47.05,-49.92 3.8,13.84 0.26,32.13 -1.87,46.38 -4.12,27.42 -7.08,46.97 -9.02,64.78 -20.85,41.66 -48.76,98.48 -57.41,100.84 -22.03,3.11 7.47,-78.14 12.86,-93.35 8.73,-24.66 -7.72,-21.58 -27.13,-42.14 -1.53,4.44 -3.86,13.35 -6.34,24.82 -23.53,30.64 -56.27,100.25 -65.96,102.88 -15.48,2.95 -6.89,-29.91 0.73,-54.33 7.48,-23.99 49.1,-133.8 84.45,-97.52 4.35,-7.08 0.66,-16.6 -4.3,-23.25 -10.76,-14.45 -25.5,-21.23 -37.37,-19.03 -36.86,6.84 -69.83,78.38 -81.85,142.47 -19.39,29.97 -48.58,73.34 -59.83,75.43 -22.95,4.24 37.56,-142.82 34.85,-153.86 -5.01,-20.41 -34.84,-30.12 -52.67,-24.95 10,14.36 7.27,26.68 3.62,43.61 -2.33,10.78 -5.78,22.3 -9.51,33.56 -12.59,3.37 -28.71,11.46 -44.47,20.53 4.33,-12.93 8.76,-25.75 13.02,-38.79 4.11,-13.1 4.89,-21.24 2.27,-27.01 -4.18,-9.17 -26.71,-19.51 -35.66,-15.05 -3.85,34.48 -19,72.77 -26.37,110.11 -11.88,7.44 -14.46,5.55 -8.03,20.86 1.55,-0.95 3.11,-1.9 4.7,-2.86 -4.13,21.02 -8.93,41.17 -7.44,61.99 0.94,13.1 7.07,19.23 14.89,27.82 6.05,6.65 6.69,5.62 10.02,-0.21 11.07,-19.32 16.26,-77.39 25.68,-114.46 16.66,-9.48 32.91,-18.89 46.39,-28.01 -14.24,43.34 -17.79,66.92 -13.37,109.02 3.39,32.24 25.57,35.63 44.32,10.07 19.77,-26.96 36.88,-53.55 53.77,-80.92 -4.28,45.7 4.81,81.25 34.66,75.44 20.42,-3.97 45.15,-87.8 68.7,-128.84 -8.96,52.37 -14.11,123.72 18.72,114.31zm-653.51 -143.49c-5.31,-70.39 -222.36,104.12 -208.1,-25.22 58.88,29.98 168.05,-52.98 218.13,-26.81 20.27,10.59 10.45,41.11 -10.03,52.03zm872.75 -154.17c-32.9,39.34 -63.98,109.12 -90.74,169.86 38.07,-40.33 102.41,-111.29 123.67,-167.27 12.14,-31.96 -17.1,-21.52 -32.93,-2.59zm-704.51 321.32c-16.6,95.13 -21.48,215.56 16.52,278.4 4.85,8.02 4.74,6.08 14.18,7.11 -14.51,-92.64 -5.72,-225.23 20.91,-337.72 18.27,-24.96 57,-86.51 73.22,-109.46 5.83,-8.25 10.6,-8.07 9.1,2.47 -5.14,36.38 -38.61,173.37 -80.5,167.29 4.39,21.16 41.2,42.52 54.48,32.1 32.02,-25.16 64.74,-131.79 73.73,-175.61 5.85,-28.55 -21.95,-66.79 -40.75,-58.36 -22.7,10.18 -52.97,57.93 -74.8,88.26 4.73,-15.26 9.82,-29.88 15.26,-43.67 10.02,-25.4 -17.26,-35.88 -40.89,-44.66 1.39,30.25 -20.66,105.29 -32.87,156.84 -23.42,34.58 -60.7,88 -77.74,91.73 -17.65,3.87 -17.41,-29.31 -11.43,-63.99 46.5,-7.27 78.16,-59.76 74.34,-117.62 -0.53,-8.01 -3.74,-12.72 -8.53,-16.35l0.69 -0.9c-9.88,-7 -20.95,-26.09 -32.9,-24.12 -21.68,3.59 -54.36,65.39 -64.08,126.08 -0.2,1.23 -0.41,2.67 -0.64,4.28 -22.34,38.84 -58.59,101.08 -73.79,103.75 -22.56,3.96 40.16,-138.1 53.21,-154.81 10.14,-12.99 -11.83,-30.04 -19.53,-36.19 -2.97,-2.38 -10.54,-4.56 -14.4,-5.15 -28.71,-4.36 -91.12,140.04 -118.91,204.22 2.28,-51.06 15.82,-111.21 44.91,-150.74 13.02,-17.71 -12.91,-26.64 -27.73,-39.7 -22.73,18.38 -80.35,128.36 -93.32,157.54 -5.82,12.42 -12.58,31.16 -19.63,44 4.36,-34.73 8.51,-68.25 23.25,-100.53 7.45,-16.33 12.34,-24.75 9.83,-31.88 -4.2,-11.89 -25,-33.68 -38.48,-31.37 0.83,17.62 -6.3,40.89 -10.41,58.13 -1.59,5.8 -3.03,11.56 -4.36,17.3 -26.62,44.74 -80.22,127.24 -100.91,130.13 -36.37,5.07 2.19,-156.04 47.14,-164.28 17.43,-1.47 -15.13,74.07 -22.43,76.4 -4.54,3.76 0.24,11.72 15.13,11.62 17.04,-28.67 49.24,-76.54 19.14,-106.61 -7.68,-7.66 -19.15,-11.92 -34.7,-9.56 -26.86,6.04 -49.9,56.13 -58.51,102.25 -20.98,41.26 -55.41,113.63 -65.19,116.3 -22.04,3.11 7.47,-78.14 12.85,-93.35 8.74,-24.66 -7.71,-21.58 -27.12,-42.14 -1.54,4.43 -3.87,13.34 -6.34,24.81 -23.53,30.64 -56.27,100.25 -65.97,102.88 -15.47,2.96 -6.88,-29.9 0.73,-54.33 7.48,-23.99 49.11,-133.79 84.45,-97.51 4.36,-7.08 0.66,-16.61 -4.29,-23.26 -10.77,-14.44 -25.51,-21.22 -37.38,-19.02 -49.42,9.17 -91.87,134.7 -86.15,202.56 -19.86,33.31 -53.19,98.25 -74.34,103.86 -67.92,18.02 47.85,-323.33 59.52,-352.4 8.48,-21.16 -27.71,-38.66 -43.61,-47.2 -8.97,16.34 -37.28,86.58 -55.96,172.14 -29.28,134.08 -42.42,297.02 22.14,281.9 28.87,-6.76 72.24,-89.28 96.62,-136.23 5.33,14.98 15.23,23.18 30.77,20.16 20.42,-3.97 45.16,-87.8 68.71,-128.85 -8.96,52.37 -14.11,123.73 18.71,114.32 17.04,-4.88 47.95,-71.54 67.53,-112.87 -4.8,45.32 -4.7,98.27 34.61,91.16 31.95,-5.77 70.39,-71.32 96.93,-121.45 -4.1,30.06 -7.24,77.62 -5.9,98.25 0.98,4.42 25.24,5.55 26.69,1.98 1.99,-12.28 74.51,-163.47 82.42,-174.67 -11.3,44.8 -16.99,95.52 -18.82,122.39 -1.11,16.25 3.89,28.92 12.87,33.36 18.65,9.22 28.14,-1.55 33.24,-16.86 17.62,-52.99 46.37,-133.63 86.62,-180.35 -16.22,38.95 -27.75,72.31 -33.63,114.89 -2.46,17.79 -8.21,74.63 25.15,68.78 29.94,-5.24 62.03,-70.58 85.61,-114.4 -2.65,40.84 0.35,98.38 38.26,90.51 28.02,-5.81 56.06,-47.52 77.47,-81.98zm-1067.12 -30.72c48.87,-26.16 99,-64.93 157.38,-106.67 -22.8,160.06 -116.57,468.7 -158.18,474.59 -31.89,4.53 -15.88,-177.07 31.9,-224.42 -14.2,-11.44 -54.17,-57.21 -66.39,-31.06 -32.18,68.86 -44.41,143.98 -28.77,215.08 9.2,41.86 38.73,70.44 65.08,64.83 95.57,-20.32 167.29,-365.83 197.01,-527.48 42.23,-28.81 88.95,-57.99 142.33,-84.57 42.77,-21.3 210.21,-101.09 270.18,-65.59 51.67,30.59 -44.09,154.99 -66.12,173.35 -4.79,3.64 27.93,45.97 52.55,53.66 40.08,-72.45 84.06,-126.47 67.41,-209.24 -15.8,-78.54 -99.6,-71.7 -155.1,-63.07 -195.16,30.33 -356.26,140.51 -520.43,247.3 -19.73,12.84 -22.03,18.84 -39.32,4.15 -11.36,29.62 4.19,103.93 50.47,79.14z"/>
    <path class="fil1" fill="#ffffff"
          d="M1674.44 467.29c0.78,-12.83 3.61,-25.57 8.49,-38.19 4.89,-12.66 11.19,-23.4 18.89,-32.21 7.7,-8.85 15.7,-14.05 23.99,-15.61 8.14,-1.54 14.34,-0.3 18.6,3.67 3.26,-4.84 7.58,-7.77 12.94,-8.79 3.3,-0.62 6.14,-0.21 8.49,1.24l-17.4 75.67c-2.67,11.33 -1.16,16.44 4.52,15.37 3.23,-0.61 6.72,-2.37 10.43,-5.22 3.71,-2.85 6.92,-6.04 9.63,-9.5 2.07,0.66 3,2.27 2.85,4.82 -0.11,1.69 -0.76,3.42 -1.93,5.13 -4.88,6.98 -10.47,13.13 -16.71,18.5 -6.23,5.33 -11.82,8.46 -16.69,9.38 -4.99,0.95 -8.99,0.02 -12.05,-2.75 -3.03,-2.78 -4.28,-8.19 -3.73,-16.28 -4.49,7.62 -9.29,13.89 -14.34,18.78 -5.06,4.92 -10.11,7.85 -15.17,8.8 -3.66,0.69 -6.85,0.46 -9.58,-0.7 -2.73,-1.17 -4.82,-2.88 -6.33,-5.15 -1.5,-2.31 -2.64,-5.08 -3.45,-8.32 -0.15,-0.6 -0.29,-1.2 -0.42,-1.79 -4.67,6.29 -9.75,11.79 -15.26,16.49 -6.14,5.2 -12.15,8.38 -17.98,9.48 -1.97,0.37 -3.77,0.46 -5.41,0.25 -1.63,-0.16 -3.21,-0.81 -4.76,-1.87 -1.52,-1.06 -2.61,-2.68 -3.26,-4.88 -0.63,-2.18 -0.97,-5.11 -1.02,-8.74 -0.06,-3.64 0.58,-8.09 1.95,-13.42l10.4 -45.51c1.21,-3.8 1.61,-6.9 1.21,-9.34 -0.4,-2.44 -1.99,-3.42 -4.82,-2.88 -5.46,1.03 -11.03,5.43 -16.65,13.16l-15.41 66.54c-1.12,4.92 -3.22,8.81 -6.26,11.61 -3,2.83 -6.4,4.6 -10.13,5.3 -3.33,0.63 -6.17,0.22 -8.52,-1.2l17.36 -75.04c1.14,-3.78 1.49,-6.87 1.12,-9.32 -0.4,-2.44 -1.99,-3.41 -4.73,-2.9 -6.04,1.14 -11.95,6.05 -17.79,14.77l-15.1 65.1c-1.13,4.91 -3.22,8.81 -6.26,11.64 -3.04,2.8 -6.41,4.56 -10.17,5.27 -3.29,0.62 -6.13,0.21 -8.49,-1.2l20.38 -87.89c0.44,-1.8 0.52,-3.16 0.24,-4.06 -0.31,-0.89 -0.89,-1.25 -1.73,-1.09 -0.77,0.14 -2.06,1.26 -3.86,3.39 -1.33,-0.7 -1.99,-2.32 -1.98,-4.99 0.01,-2.62 0.92,-5.05 2.73,-7.25 7.95,-8.47 15.07,-13.31 21.33,-14.49 3.48,-0.66 5.98,-0.15 7.43,1.55 1.49,1.69 1.7,4.64 0.68,8.91l-2.44 10.41c9.48,-16.4 19.02,-25.53 28.74,-27.36 4.28,-0.81 7.86,0.48 10.79,3.83 2.9,3.39 4.04,8.75 3.35,16.06 9.84,-16.91 19.52,-26.25 29.11,-28.06 1.81,-0.34 3.52,-0.37 5.18,-0.06 1.66,0.3 3.32,0.97 4.99,2.12 1.7,1.1 2.94,2.79 3.77,5.08 0.8,2.33 1.29,5.29 1.44,8.91 0.17,3.65 -0.44,8.18 -1.84,13.54l-12.14 52.59c-0.74,3.13 -0.67,5.37 0.16,6.71 0.84,1.34 2.24,1.8 4.24,1.42 3.24,-0.61 6.73,-2.36 10.44,-5.21 2.92,-2.26 5.53,-4.71 7.82,-7.34 -0.06,-2.24 -0.02,-4.54 0.12,-6.88zm-690.29 139.74c0.56,-9.15 4.97,-14.5 13.23,-16.06 2.41,-0.45 4.87,0.11 7.4,1.71 -2.56,5.87 -4.02,11.91 -4.4,18.03 2.7,-2.3 5.1,-4.61 7.13,-6.92 2.06,-2.32 4.47,-5.8 7.22,-10.51 2.76,-4.68 5.54,-10.34 8.36,-17.03 -5.59,-0.73 -9.7,-3.31 -12.38,-7.76 -2.69,-4.45 -3.84,-9.99 -3.44,-16.63 0.4,-6.49 1.93,-12.5 4.61,-18 2.69,-5.53 6.04,-10.14 10.08,-13.85 4.04,-3.72 8.31,-6.75 12.78,-9.09 4.5,-2.34 9.04,-3.93 13.67,-4.8 4.37,-0.83 8.25,-0.86 11.61,-0.11 3.37,0.75 6.23,2.39 8.6,4.9 2.38,2.5 3.78,6.03 4.26,10.56 0.45,4.55 -0.02,10.25 -1.44,17.08l-9.41 41.28c-2.65,11.32 -1.16,16.44 4.51,15.37 3.24,-0.61 6.73,-2.37 10.44,-5.22 3.74,-2.89 6.95,-6.05 9.66,-9.55 2.03,0.68 2.97,2.29 2.82,4.79 -0.11,1.74 -0.73,3.46 -1.91,5.17 -4.97,7.06 -10.5,13.25 -16.64,18.56 -6.11,5.27 -11.7,8.4 -16.76,9.36 -1.69,0.32 -3.28,0.44 -4.77,0.32 -1.51,-0.12 -3.08,-0.48 -4.71,-1.15 -1.61,-0.65 -2.94,-1.71 -3.98,-3.19 -1.04,-1.48 -1.92,-3.43 -2.66,-5.8 -0.77,-2.41 -1.01,-5.39 -0.76,-8.97 0.25,-3.58 0.87,-7.78 1.9,-12.71l2.79 -12.12 -8.67 1.63c-2.35,5.59 -4.78,10.89 -7.28,15.92 -2.53,5.03 -5.48,10.4 -8.88,16.11 -3.42,5.67 -7,10.43 -10.74,14.24 -3.74,3.8 -7.29,6.04 -10.68,6.75 -3.9,0.88 -6.94,-0.62 -9.08,-4.56 -0.76,-1.39 -1.36,-3.05 -1.79,-4.97 -2.24,2.35 -4.58,4.57 -7.03,6.68 -6.24,5.33 -11.82,8.46 -16.69,9.38 -4.99,0.94 -8.99,0.02 -12.05,-2.76 -3.03,-2.78 -4.28,-8.19 -3.73,-16.28 -4.49,7.63 -9.29,13.89 -14.34,18.78 -5.06,4.93 -10.11,7.85 -15.17,8.8 -3.67,0.7 -6.85,0.46 -9.58,-0.7 -2.73,-1.16 -4.82,-2.88 -6.33,-5.15 -1.5,-2.3 -2.64,-5.08 -3.45,-8.31 -0.15,-0.6 -0.29,-1.19 -0.41,-1.77 -11.02,15.18 -21.39,23.7 -31.15,25.55 -1.7,0.32 -3.29,0.43 -4.81,0.32 -1.51,-0.12 -3.08,-0.48 -4.68,-1.16 -1.58,-0.65 -2.91,-1.71 -3.95,-3.19 -1.04,-1.48 -1.92,-3.43 -2.69,-5.8 -0.74,-2.41 -0.98,-5.39 -0.73,-8.97 0.25,-3.58 0.87,-7.78 1.9,-12.71l5.11 -22.18c-8.39,4.65 -16.33,7.89 -23.82,9.75l-8.86 38.18c-1.15,4.92 -3.15,8.77 -6.04,11.57 -2.88,2.76 -6.15,4.51 -9.82,5.21 -3.3,0.62 -6.14,0.24 -8.49,-1.17l2.61 -11.17c-8.93,10.64 -17.44,16.74 -25.53,18.26 -1.7,0.32 -3.29,0.44 -4.81,0.33 -1.51,-0.12 -3.08,-0.48 -4.68,-1.16 -1.61,-0.64 -2.94,-1.7 -3.98,-3.18 -1.04,-1.49 -1.92,-3.43 -2.66,-5.81 -0.71,-2.42 -0.95,-5.39 -0.7,-8.98 0.25,-3.58 0.87,-7.78 1.91,-12.71l4.23 -18.44c-6.95,10.46 -14.38,16.42 -22.33,17.92 -16.03,3.02 -20.84,-8.57 -14.48,-34.81l2.65 -11.51c0.48,-1.8 0.56,-3.16 0.25,-4.05 -0.28,-0.93 -0.86,-1.3 -1.69,-1.14 -0.81,0.15 -2.09,1.27 -3.87,3.39 -1.33,-0.66 -1.99,-2.32 -1.98,-4.95 0.01,-2.66 0.92,-5.09 2.73,-7.25 7.95,-8.5 15.04,-13.34 21.33,-14.53 3.49,-0.65 5.95,-0.14 7.43,1.55 1.48,1.69 1.7,4.64 0.68,8.91l-6.9 29.63c-2.11,8.96 -0.27,12.87 5.52,11.78 4.69,-0.88 9.57,-5.01 14.69,-12.43l7.11 -31.04c1.15,-4.92 3.13,-8.76 5.98,-11.56 2.85,-2.76 6.12,-4.5 9.82,-5.2 3.33,-0.63 6.17,-0.22 8.55,1.23l-17.52 75.68c-2.64,11.29 -1.13,16.4 4.61,15.32 3.23,-0.62 6.72,-2.37 10.43,-5.22 2.61,-2.01 4.95,-4.17 7.05,-6.47l14.1 -60.32c0.45,-1.79 0.53,-3.16 0.25,-4.05 -0.31,-0.93 -0.89,-1.29 -1.73,-1.13 -0.77,0.14 -2.06,1.3 -3.87,3.5 -1.33,-0.7 -1.99,-2.36 -1.97,-5.02 0,-2.63 0.91,-5.06 2.72,-7.26 7.93,-8.53 14.99,-13.36 21.22,-14.54 3.45,-0.65 5.95,-0.14 7.4,1.6 1.48,1.72 1.69,4.74 0.66,9.05l-8.62 37.35c7.51,-1.75 15.2,-4.04 23.15,-6.89l7.6 -32.99c1.12,-4.91 3.09,-8.79 5.92,-11.58 2.82,-2.75 6.06,-4.5 9.73,-5.19 3.3,-0.62 6.14,-0.21 8.49,1.21l-17.37 75.66c-2.67,11.32 -1.16,16.43 4.48,15.37 3.27,-0.62 6.76,-2.37 10.47,-5.22 2.9,-2.26 5.49,-4.68 7.79,-7.3 -0.07,-2.26 -0.03,-4.57 0.12,-6.91 0.78,-12.84 3.61,-25.58 8.49,-38.2 4.89,-12.66 11.18,-23.39 18.88,-32.21 7.71,-8.85 15.7,-14.04 24,-15.61 8.13,-1.53 14.34,-0.3 18.6,3.67 3.25,-4.84 7.58,-7.77 12.94,-8.78 3.3,-0.62 6.14,-0.21 8.49,1.24l-17.4 75.66c-2.67,11.33 -1.16,16.44 4.51,15.37 3.24,-0.61 6.73,-2.36 10.44,-5.21l0.16 -0.13 0.02 -0.38zm-466.12 190.27l39.36 -172.09c0.47,-1.8 0.55,-3.13 0.24,-4.05 -0.28,-0.9 -0.86,-1.26 -1.7,-1.1 -0.8,0.15 -2.08,1.19 -3.87,3.14 -1.3,-0.71 -1.96,-2.33 -1.96,-4.92 0.01,-2.63 0.92,-5.02 2.7,-7.18 7.97,-8.39 15.09,-13.2 21.38,-14.38 3.49,-0.66 5.98,-0.15 7.47,1.54 1.48,1.69 1.69,4.64 0.64,8.92l-1.23 5.58c8.67,-13.18 17.48,-20.64 26.32,-22.31 5.28,-1 9.61,-0.17 13.02,2.46 3.43,2.67 5.76,6.5 7.03,11.5 1.28,5.05 1.71,10.98 1.29,17.88 -0.52,8.44 -2.32,17.38 -5.37,26.85 -3.07,9.43 -7.03,18.38 -11.85,26.83 -4.84,8.46 -10.74,15.77 -17.76,21.94 -6.99,6.17 -14.29,9.99 -21.94,11.43 -4.81,0.91 -8.94,-0.24 -12.46,-3.47l-17.36 75.91c-1.12,4.95 -3.1,8.82 -5.92,11.61 -2.85,2.8 -6.06,4.53 -9.67,5.22 -3.21,0.6 -5.99,0.18 -8.36,-1.31zm44.52 -105.52c2.52,1.01 5.56,1.2 9.13,0.53 4.57,-0.86 8.92,-3.32 13.07,-7.42 4.16,-4.1 7.62,-8.99 10.44,-14.66 2.81,-5.63 5.1,-11.6 6.91,-17.88 1.79,-6.28 2.85,-12.24 3.2,-17.84 0.45,-7.45 -0.22,-12.83 -2,-16.14 -1.78,-3.34 -4.35,-4.68 -7.71,-4.05 -5.92,1.12 -12.37,7.04 -19.43,17.81l-13.61 59.65zm46.07 66.59c0.24,-3.9 1,-7.73 2.23,-11.46 1.24,-3.77 2.79,-7.23 4.66,-10.46 1.87,-3.2 4.27,-6.49 7.22,-9.86 2.94,-3.32 5.91,-6.4 8.91,-9.19 3,-2.79 6.6,-5.8 10.82,-9.07 4.23,-3.28 8.19,-6.25 11.92,-8.96 3.73,-2.71 8.13,-5.83 13.16,-9.37 0.19,-0.11 0.34,-0.21 0.47,-0.31 0.47,-1.65 1.22,-4.38 2.31,-8.27 1.06,-3.88 1.91,-6.96 2.6,-9.2 -8.81,13.54 -17.41,21.11 -25.86,22.7 -3.54,0.67 -6.51,0.43 -8.88,-0.76 -2.36,-1.2 -4.05,-3.03 -5.09,-5.46 -1.07,-2.46 -1.67,-5.51 -1.91,-9.15 -0.23,-3.67 -0.09,-7.45 0.42,-11.3 0.51,-3.89 1.29,-8.08 2.33,-12.62l11.41 -47.01c0.47,-1.81 0.55,-3.13 0.24,-4.06 -0.31,-0.89 -0.86,-1.26 -1.73,-1.09 -0.77,0.14 -2.05,1.26 -3.86,3.39 -1.33,-0.66 -1.99,-2.33 -1.98,-4.95 0.01,-2.66 0.92,-5.06 2.73,-7.26 7.95,-8.5 15.07,-13.34 21.33,-14.52 3.49,-0.66 5.95,-0.14 7.43,1.55 1.49,1.65 1.7,4.63 0.65,8.88l-15.4 65.92c-0.88,3.85 -0.91,6.84 -0.03,8.9 0.85,2.1 2.72,2.87 5.65,2.32 4.9,-0.93 9.85,-4.56 14.83,-10.89l16.04 -68.37c1.16,-4.92 3.25,-8.82 6.29,-11.65 3.04,-2.8 6.44,-4.57 10.17,-5.27 3.33,-0.63 6.17,-0.22 8.55,1.19l-21.12 90.58c-0.71,3.23 -1.46,6.4 -2.19,9.49l-3.21 13.03c-1.72,6.67 -3.41,12.82 -5.06,18.45 -1.66,5.67 -3.64,11.66 -5.91,17.95 -2.31,6.31 -4.64,12 -6.99,17.07 -2.38,5.08 -5.09,10.07 -8.2,14.99 -3.1,4.93 -6.35,9.15 -9.7,12.62 -3.38,3.48 -7.16,6.49 -11.34,8.99 -4.17,2.5 -8.54,4.17 -13.13,5.03 -2.65,0.5 -5.24,0.44 -7.79,-0.2 -2.55,-0.65 -4.86,-1.82 -6.88,-3.51 -2.06,-1.69 -3.65,-4.16 -4.79,-7.41 -1.14,-3.28 -1.58,-7.06 -1.32,-11.42zm16.83 -6.05c-0.21,3.47 0.49,5.92 2.08,7.33 1.62,1.41 3.23,1.98 4.86,1.67 6.2,-1.17 11.71,-6.03 16.47,-14.55 4.79,-8.56 10.18,-22.55 16.19,-42.01 -6.49,4.86 -11.77,9.03 -15.85,12.43 -4.08,3.43 -8.05,7.17 -11.9,11.24 -3.84,4.05 -6.7,8.01 -8.62,11.87 -1.91,3.9 -2.98,7.89 -3.23,12.02zm292.6 -146.55c-0.33,5.27 0.36,9.04 2.01,11.39 1.69,2.3 4.01,3.18 7.03,2.61 2.99,-0.57 6.34,-2.48 9.98,-5.75 3.64,-3.24 6.81,-7.19 9.53,-11.75l14.07 -61.15c-2.95,-0.65 -5.84,-0.72 -8.64,-0.19 -5.3,1 -10.14,3.81 -14.47,8.38 -4.3,4.6 -7.78,10.18 -10.44,16.73 -2.62,6.55 -4.7,13.17 -6.22,19.91 -1.5,6.73 -2.46,13.33 -2.85,19.82zm110.31 -57.89c-0.41,4.78 0.11,8.65 1.58,11.58 1.49,2.93 3.8,4.1 6.94,3.5l8.14 -1.53 6.09 -26.3c1.37,-5.94 1.51,-10.2 0.38,-12.75 -1.12,-2.56 -3.01,-3.59 -5.69,-3.08 -4.71,0.89 -8.7,4.26 -11.89,10.08 -3.16,5.8 -5.03,11.95 -5.55,18.5zm151.11 127.38l39.36 -172.09c0.48,-1.81 0.56,-3.13 0.25,-4.06 -0.28,-0.89 -0.87,-1.26 -1.7,-1.1 -0.8,0.15 -2.09,1.19 -3.88,3.14 -1.3,-0.7 -1.96,-2.33 -1.96,-4.92 0.01,-2.62 0.92,-5.02 2.7,-7.18 7.98,-8.39 15.1,-13.2 21.39,-14.38 3.48,-0.66 5.98,-0.15 7.46,1.54 1.48,1.69 1.7,4.64 0.64,8.92l-1.22 5.59c8.66,-13.19 17.47,-20.65 26.32,-22.32 5.27,-0.99 9.61,-0.17 13.01,2.47 3.43,2.66 5.76,6.49 7.04,11.5 1.27,5.04 1.7,10.97 1.28,17.87 -0.52,8.44 -2.31,17.38 -5.36,26.85 -3.08,9.44 -7.04,18.38 -11.85,26.84 -4.85,8.45 -10.75,15.76 -17.77,21.94 -6.99,6.16 -14.29,9.98 -21.94,11.43 -4.81,0.9 -8.94,-0.25 -12.46,-3.48l-17.35 75.91c-1.13,4.95 -3.1,8.82 -5.92,11.61 -2.86,2.8 -6.07,4.54 -9.68,5.22 -3.2,0.6 -5.98,0.18 -8.36,-1.3zm44.52 -105.53c2.53,1.02 5.56,1.21 9.14,0.53 4.56,-0.86 8.92,-3.32 13.07,-7.42 4.15,-4.1 7.62,-8.98 10.43,-14.65 2.81,-5.64 5.1,-11.61 6.92,-17.89 1.78,-6.28 2.85,-12.24 3.19,-17.84 0.46,-7.45 -0.22,-12.83 -2,-16.14 -1.77,-3.34 -4.34,-4.68 -7.7,-4.04 -5.92,1.11 -12.38,7.03 -19.44,17.8l-13.61 59.65zm69.58 -30.56c0.78,-12.83 3.6,-25.57 8.49,-38.19 4.89,-12.66 11.18,-23.39 18.88,-32.21 7.7,-8.85 15.7,-14.04 23.99,-15.61 8.14,-1.53 14.34,-0.3 18.61,3.67 3.25,-4.84 7.58,-7.77 12.94,-8.78 3.3,-0.63 6.14,-0.21 8.49,1.24l-17.4 75.66c-2.68,11.33 -1.16,16.44 4.51,15.37 3.24,-0.61 6.73,-2.36 10.44,-5.21 1.65,-1.28 3.21,-2.62 4.67,-4.02 -0.33,-3.32 -0.38,-6.9 -0.14,-10.76 0.47,-7.71 2.1,-15.85 4.88,-24.5 2.81,-8.62 6.36,-16.73 10.66,-24.28 4.3,-7.56 9.49,-14.11 15.52,-19.59 6.06,-5.48 12.27,-8.8 18.68,-10.01 2.28,-0.43 4.3,-0.59 6.09,-0.49 -1.66,-2.21 -3.69,-4.37 -6.12,-6.47 -2.43,-2.05 -4.59,-3.69 -6.44,-4.83 -1.88,-1.14 -4.2,-2.52 -7,-4.15 -2.79,-1.66 -4.67,-2.76 -5.64,-3.34 0.17,-2.8 0.37,-5.14 0.61,-7 0.52,-4.17 2.17,-9.99 4.69,-13.43 3.27,-4.47 8.71,-7.22 14.06,-8.23 21.52,-4.06 45.38,-5.8 67.86,-10.49 34.16,-7.13 69.93,-16.62 72.69,-17.14 4.68,-0.88 8.76,-2.23 12.25,-4.02 1.35,2.4 1.7,5.95 0.7,10.47 -0.99,4.5 -3.05,8.56 -5.87,12.23 -2.81,3.66 -6.24,5.87 -10.28,6.64 -2.96,0.56 -54.66,11.37 -91,18.38 -19.27,3.72 -30,3.83 -45.73,5.32 -10.37,0.98 -5.3,1.5 1.8,7.31 2.21,1.81 4.88,4.4 7.97,7.72 3.12,3.35 5.5,6.65 7.22,9.9 1.69,3.25 3.13,7.24 4.27,11.95 1.14,4.7 1.54,9.69 1.22,15 -0.4,6.49 -1.43,13.39 -3.1,20.74 -1.67,7.35 -3.98,14.67 -6.92,21.97 -2.95,7.34 -6.32,14.06 -10.07,20.16 -3.79,6.15 -8.16,11.35 -13.12,15.6 -4.95,4.25 -10.08,6.9 -15.38,7.9 -4.66,0.87 -8.66,0.61 -12.08,-0.75 -3.39,-1.4 -6.02,-3.67 -7.87,-6.86 -0.95,-1.62 -1.76,-3.38 -2.42,-5.29 -3.89,4.88 -8.17,9.31 -12.82,13.3 -6.24,5.34 -11.82,8.47 -16.69,9.39 -5,0.94 -8.99,0.02 -12.05,-2.76 -3.03,-2.78 -4.29,-8.19 -3.73,-16.28 -4.49,7.63 -9.29,13.89 -14.34,18.78 -5.06,4.93 -10.11,7.85 -15.17,8.8 -3.67,0.7 -6.85,0.46 -9.58,-0.7 -2.74,-1.16 -4.83,-2.88 -6.33,-5.15 -1.51,-2.3 -2.65,-5.08 -3.45,-8.31 -0.81,-3.28 -1.32,-6.39 -1.47,-9.39 -0.18,-2.98 -0.18,-6.08 0.02,-9.26zm23.02 -5.84c-0.32,5.28 0.36,9.05 2.02,11.4 1.69,2.3 4.01,3.18 7.03,2.61 2.99,-0.57 6.34,-2.48 9.98,-5.75 3.64,-3.24 6.81,-7.19 9.53,-11.75l14.07 -61.15c-2.95,-0.65 -5.84,-0.72 -8.64,-0.19 -5.3,1 -10.14,3.81 -14.47,8.38 -4.3,4.6 -7.79,10.18 -10.44,16.73 -2.63,6.54 -4.71,13.17 -6.22,19.91 -1.51,6.73 -2.46,13.33 -2.86,19.81zm94.53 -24c-0.36,5.9 0.27,10.56 1.87,13.87 1.62,3.33 4.25,4.66 7.86,3.98 3.79,-0.72 7.45,-3.34 10.96,-7.9 3.54,-4.53 6.49,-9.97 8.86,-16.25 2.4,-6.32 4.35,-12.81 5.85,-19.44 1.5,-6.62 2.43,-12.74 2.77,-18.31 0.25,-4.05 -0.12,-8.06 -1.07,-11.97 -1.94,-0.18 -4.66,0.04 -8.15,0.7 -3.82,0.72 -7.46,3.02 -11.02,6.89 -3.53,3.88 -6.53,8.56 -8.99,13.98 -2.44,5.46 -4.47,11.2 -6.06,17.29 -1.59,6.1 -2.55,11.82 -2.88,17.16zm51.75 -4.11c0.41,-6.68 1.57,-13.71 3.48,-21.03 1.88,-7.36 4.49,-14.52 7.72,-21.5 3.26,-7 6.91,-13.41 10.99,-19.24 4.07,-5.88 8.7,-10.8 13.88,-14.8 5.15,-4 10.46,-6.53 15.88,-7.55 4.84,-0.91 9.06,-0.69 12.67,0.63 3.57,1.37 6.39,3.64 8.42,6.91 2.02,3.22 3.43,7.08 4.26,11.55 0.82,4.43 1.06,9.46 0.72,14.99 -0.4,6.63 -1.56,13.59 -3.5,20.88 -1.94,7.3 -4.54,14.42 -7.86,21.46 -3.3,7 -7.04,13.43 -11.18,19.28 -4.16,5.85 -8.95,10.8 -14.31,14.83 -5.4,4.05 -10.89,6.61 -16.47,7.67 -4.62,0.87 -8.63,0.61 -12.05,-0.83 -3.41,-1.43 -6.04,-3.78 -7.94,-7.06 -1.87,-3.29 -3.19,-7.13 -3.99,-11.57 -0.8,-4.4 -1.05,-9.28 -0.72,-14.62zm24.11 -11.59c-0.56,9.15 0.14,15.76 2.08,19.76 1.98,4.04 4.71,5.71 8.29,5.04 4.62,-0.88 9.23,-4.88 13.81,-12.05 4.58,-7.13 8.28,-15.34 11.13,-24.62 2.86,-9.29 4.54,-17.88 5.02,-25.73 0.39,-6.35 -0.19,-11.3 -1.71,-14.84 -1.55,-3.54 -4.12,-4.95 -7.75,-4.26 -4.01,0.76 -7.9,3.13 -11.68,7.12 -3.75,3.99 -6.94,8.75 -9.56,14.27 -2.66,5.57 -4.81,11.44 -6.54,17.67 -1.72,6.27 -2.75,12.15 -3.09,17.64zm210.49 -32.18c-0.32,5.27 0.36,9.05 2.01,11.39 1.69,2.31 4.01,3.18 7.03,2.61 2.99,-0.56 6.34,-2.47 9.99,-5.74 3.64,-3.24 6.8,-7.19 9.52,-11.75l14.07 -61.15c-2.94,-0.65 -5.83,-0.72 -8.64,-0.19 -5.3,1 -10.14,3.8 -14.47,8.38 -4.3,4.6 -7.78,10.17 -10.44,16.73 -2.62,6.54 -4.7,13.17 -6.21,19.9 -1.51,6.74 -2.46,13.33 -2.86,19.82z"/>
    <polygon class="fil1" fill="#ffffff"
             points="702.02,703.97 1123.99,624.33 1111.18,656.59 691.13,735.87 "/>
    <polygon class="fil1" fill="#ffffff"
             points="1236.22,603.03 1785.06,499.01 1772.25,531.27 1225.33,634.93 "/>

</svg>
